<!--?xml version="1.0" standalone="no"?-->
              <svg id="sw-js-blob-svg" viewBox="0 0 100 100" xmlns="http://www.w3.org/2000/svg" version="1.1">
                    <defs> 
                        <linearGradient id="sw-gradient" x1="0" x2="1" y1="1" y2="0">
                            <stop id="stop1" stop-color="rgba(0, 115, 210, 1)" offset="0%"></stop>
                            <stop id="stop2" stop-color="rgba(0, 115, 210, 1)" offset="100%"></stop>
                        </linearGradient>
                    </defs>
                <path fill="url(#sw-gradient)" d="M23.8,-28.1C29.4,-23.6,31.6,-14.8,30.9,-7.2C30.2,0.5,26.6,6.9,23.1,13.6C19.6,20.4,16.1,27.5,10,31.4C3.9,35.3,-4.8,36.1,-10.7,32.6C-16.6,29,-19.8,21.2,-25,13.7C-30.2,6.2,-37.3,-0.8,-37.3,-7.6C-37.3,-14.4,-30.2,-20.9,-22.7,-25C-15.3,-29.1,-7.7,-30.9,0.7,-31.8C9.1,-32.6,18.2,-32.6,23.8,-28.1Z" width="100%" height="100%" transform="translate(50 50)" stroke-width="0" style="transition: all 0.3s ease 0s;" stroke="url(#sw-gradient)"></path>
              </svg>